HIERARCHY
ROOT Hips
{
	OFFSET 0.000000 0.000000 0.000000 
	CHANNELS 6 Xposition Yposition Zposition Zrotation Yrotation Xrotation
	JOINT LeftUpLeg
	{
		OFFSET 1.363060 -1.794630 0.839290 
		CHANNELS 3 Zrotation Yrotation Xrotation
		JOINT LeftLeg
		{
			OFFSET 2.448110 -6.726130 0.000000 
			CHANNELS 3 Zrotation Yrotation Xrotation
			JOINT LeftFoot
			{
				OFFSET 2.562200 -7.039590 0.000000 
				CHANNELS 3 Zrotation Yrotation Xrotation
				JOINT LeftToeBase
				{
					OFFSET 0.157640 -0.433110 2.322550 
					CHANNELS 3 Zrotation Yrotation Xrotation
					End Site
					{
						OFFSET 0.000000 0.000000 0.000000 
					}
				}
			}
		}
	}
	JOINT RightUpLeg
	{
		OFFSET -1.305520 -1.794630 0.839290 
		CHANNELS 3 Zrotation Yrotation Xrotation
		JOINT RightLeg
		{
			OFFSET -2.542530 -6.985550 0.000000 
			CHANNELS 3 Zrotation Yrotation Xrotation
			JOINT RightFoot
			{
				OFFSET -2.568260 -7.056230 0.000000 
				CHANNELS 3 Zrotation Yrotation Xrotation
				JOINT RightToeBase
				{
					OFFSET -0.164730 -0.452590 2.363150 
					CHANNELS 3 Zrotation Yrotation Xrotation
					End Site
					{
						OFFSET 0.000000 0.000000 0.000000 
					}
				}
			}
		}
	}
	JOINT Spine
	{
		OFFSET 0.028270 2.035590 -0.193380 
		CHANNELS 3 Zrotation Yrotation Xrotation
		JOINT Spine1
		{
			OFFSET 0.056720 2.048850 -0.042750 
			CHANNELS 3 Zrotation Yrotation Xrotation
			JOINT Neck1
			{
				OFFSET -0.054170 1.746240 0.172020 
				CHANNELS 3 Zrotation Yrotation Xrotation
				JOINT Head
				{
					OFFSET 0.104070 1.761360 -0.123970 
					CHANNELS 3 Zrotation Yrotation Xrotation
					End Site
					{
						OFFSET 0.000000 0.000000 0.000000 
					}
				}
			}
			JOINT LeftArm
			{
				OFFSET 3.362410 1.200890 -0.311210 
				CHANNELS 3 Zrotation Yrotation Xrotation
				JOINT LeftForeArm
				{
					OFFSET 4.983000 -0.000000 -0.000000 
					CHANNELS 3 Zrotation Yrotation Xrotation
					JOINT LeftHand
					{
						OFFSET 3.483560 -0.000000 -0.000000 
						CHANNELS 3 Zrotation Yrotation Xrotation
						JOINT LeftHandIndex1
						{
							OFFSET 0.715260 -0.000000 -0.000000 
							CHANNELS 3 Zrotation Yrotation Xrotation
							End Site
							{
								OFFSET 0.000000 0.000000 0.000000 
							}
						}
					}
				}
			}
			JOINT RightArm
			{
				OFFSET -3.136600 1.374050 -0.404650 
				CHANNELS 3 Zrotation Yrotation Xrotation
				JOINT RightForeArm
				{
					OFFSET -5.241900 -0.000000 -0.000000 
					CHANNELS 3 Zrotation Yrotation Xrotation
					JOINT RightHand
					{
						OFFSET -3.444170 -0.000000 -0.000000 
						CHANNELS 3 Zrotation Yrotation Xrotation
						JOINT RightHandIndex1
						{
							OFFSET -0.622530 -0.000000 -0.000000 
							CHANNELS 3 Zrotation Yrotation Xrotation
							End Site
							{
								OFFSET 0.000000 0.000000 0.000000 
							}
						}
					}
				}
			}
		}
	}
}
MOTION
Frames: 16
Frame Time: 0.041667
-26.596403 18.251349 2.472790 -178.155930 7.435571 -164.081395 -6.360035 -16.677502 -15.528119 -0.541708 8.126273 22.419553 -3.411480 11.722747 -1.280208 0.012400 0.720200 1.979200 11.253492 10.519247 -17.875124 0.134702 -7.385311 19.962606 2.874774 -13.085082 -2.130824 -1.058100 6.540200 -18.360000 2.819281 2.062997 -12.351355 -0.159899 1.452639 -1.656825 12.687766 1.190252 9.236919 1.786500 0.877500 -0.646800 -89.862410 2.146223 -7.894702 9.405822 -9.524220 -0.864006 -0.386129 0.555503 64.266054 -7.125000 0.000000 0.000000 91.222914 33.765262 91.774041 -150.719562 35.457486 -109.983490 -0.908282 0.792409 -23.060440 7.125000 0.000000 0.000000 
-26.601522 18.254131 2.470342 -178.276337 7.437678 -164.087291 -6.493107 -16.709357 -15.494608 -0.549835 8.112896 22.394259 -3.403289 11.702403 -1.309457 0.016200 0.821600 2.258100 11.095099 10.505147 -17.904373 0.131700 -7.397412 19.993721 2.846262 -12.967639 -2.185553 -1.002500 6.371500 -17.866100 2.618492 2.106579 -12.331103 -0.286875 1.458392 -1.629411 12.639748 1.107920 9.239082 1.750800 0.838400 -0.634000 -89.685560 2.074520 -8.438796 9.364594 -9.490295 -0.851590 -0.369396 0.561252 64.891801 -7.125000 0.000000 0.000000 91.156992 33.579903 91.377564 -150.630357 35.544145 -109.935958 -0.896554 0.802884 -22.763139 7.125000 0.000000 0.000000 
-26.606308 18.252573 2.469118 -178.268653 7.496751 -164.144154 -6.526435 -16.635733 -15.441143 -0.557563 8.100624 22.360798 -3.395063 11.683124 -1.307326 0.018400 0.874600 2.403900 11.086142 10.445519 -17.901562 0.125822 -7.416886 20.049207 2.807232 -12.821412 -2.228010 -0.995000 6.348200 -17.798000 2.519366 2.216150 -12.274486 -0.344044 1.506634 -1.635987 12.848316 0.950499 9.371828 1.801500 0.772600 -0.577200 -89.565174 1.968408 -8.894861 9.322631 -9.456220 -0.841482 -0.365056 0.560189 65.518514 -7.125000 0.000000 0.000000 90.900787 33.430434 90.844258 -150.453505 35.704213 -109.830488 -0.881512 0.818747 -22.500122 7.125000 0.000000 0.000000 
-26.613541 18.248567 2.469118 -178.216595 7.506054 -164.166103 -6.502186 -16.625598 -15.407285 -0.560794 8.092401 22.332586 -3.425819 11.756388 -1.282872 0.009200 0.620800 1.706000 11.126577 10.493443 -17.871178 0.119414 -7.433826 20.091623 2.849060 -12.978202 -2.295500 -1.096700 6.654600 -18.696100 2.481769 2.283932 -12.259553 -0.409320 1.537619 -1.690161 13.079327 0.791706 9.611356 1.872400 0.714900 -0.493900 -89.497939 1.887528 -9.411347 9.271990 -9.412473 -0.833899 -0.365835 0.561639 66.107889 -7.125000 0.000000 0.000000 90.687182 33.241319 90.282473 -150.269061 35.875761 -109.718021 -0.864304 0.837064 -22.758801 7.125000 0.000000 0.000000 
-26.623780 18.248567 2.470230 -178.244831 7.442068 -164.102138 -6.528080 -16.649494 -15.484099 -0.558641 8.092924 22.339290 -3.413989 11.729322 -1.238919 0.002600 0.330200 0.907100 11.084415 10.474037 -17.946145 0.120121 -7.432500 20.083790 2.879368 -13.085107 -2.348150 -1.154900 6.823100 -19.192300 2.453894 2.237467 -12.290889 -0.476106 1.513634 -1.699829 13.205942 0.872257 9.574063 1.909100 0.751900 -0.512100 -89.488419 1.820636 -9.937888 9.218518 -9.360529 -0.828657 -0.357634 0.575007 66.544233 -7.125000 0.000000 0.000000 90.489755 32.919719 89.891852 -150.124645 36.008401 -109.629129 -0.845806 0.858051 -22.910489 7.125000 0.000000 0.000000 
-26.632126 18.248233 2.470898 -178.235870 7.383259 -164.051049 -6.531581 -16.478425 -15.629449 -0.556644 8.099238 22.361418 -3.309839 11.485878 -1.170494 0.004100 0.411900 1.131800 11.098619 10.303227 -18.062688 0.123357 -7.426011 20.069206 2.836965 -12.927513 -2.321692 -1.129600 6.750400 -18.978000 2.387021 2.199978 -12.325207 -0.578686 1.490165 -1.724180 13.263958 0.962035 9.514916 1.900200 0.793700 -0.539000 -89.371850 1.873605 -9.682089 9.216901 -9.349602 -0.836088 -0.360178 0.585927 66.264294 -7.125000 0.000000 0.000000 90.163425 32.539025 89.663778 -150.061299 36.057152 -109.575050 -0.833856 0.876501 -21.953269 7.125000 0.000000 0.000000 
-26.636021 18.250459 2.473458 -178.213431 7.289487 -163.945868 -6.501920 -16.178738 -15.885277 -0.555449 8.107971 22.380966 -3.143008 11.099835 -1.024035 0.010900 0.673800 1.851600 11.103582 10.327236 -18.140521 0.123480 -7.415163 20.046853 2.855279 -12.996038 -2.236650 -1.115700 6.710300 -18.860000 2.371040 2.108605 -12.386275 -0.621354 1.449847 -1.751826 13.421196 0.943152 9.562929 1.949000 0.788500 -0.523500 -89.300928 1.873335 -10.212413 9.213790 -9.366894 -0.839789 -0.359393 0.593012 66.657091 -7.125000 0.000000 0.000000 89.942627 32.353612 89.585288 -150.462827 35.669458 -109.828450 -0.834171 0.888721 -21.509859 7.125000 0.000000 0.000000 
-26.638024 18.255022 2.478577 -178.218955 7.202815 -163.860941 -6.481848 -15.991562 -16.087882 -0.552466 8.118314 22.406892 -3.000036 10.768942 -0.890247 0.013600 0.754300 2.073100 11.083426 10.397425 -18.180539 0.124625 -7.401968 20.016114 2.896720 -13.147855 -2.195528 -1.103000 6.673200 -18.750800 2.418478 1.960331 -12.452373 -0.607675 1.382493 -1.802550 13.428957 0.990239 9.553624 1.959300 0.810100 -0.538900 -89.327830 1.814098 -11.389145 9.171794 -9.354158 -0.833393 -0.349594 0.601925 67.554394 -7.125000 0.000000 0.000000 89.284240 31.753915 89.206755 -149.897271 36.178833 -109.482060 -0.810359 0.901565 -21.247240 7.125000 0.000000 0.000000 
-26.643589 18.256468 2.480246 -178.204268 7.196542 -163.867116 -6.490593 -15.854050 -16.160941 -0.548875 8.130609 22.441744 -2.911125 10.562224 -0.850582 0.012800 0.730900 2.008700 11.084500 10.404863 -18.156432 0.128038 -7.392460 19.991706 2.903669 -13.171991 -2.205838 -1.106600 6.683700 -18.781500 2.353451 1.966884 -12.495761 -0.683702 1.380995 -1.898402 13.302731 0.926000 9.598033 1.896300 0.784100 -0.542800 -89.219822 1.834472 -11.694534 9.116145 -9.290154 -0.824666 -0.347625 0.606265 67.776427 -7.125000 0.000000 0.000000 88.737888 31.102471 88.637511 -149.654651 36.388724 -109.344392 -0.793322 0.908616 -20.748410 7.125000 0.000000 0.000000 
-26.649932 18.255467 2.477464 -178.218945 7.219915 -163.873850 -6.574569 -15.410044 -16.352646 -0.548507 8.147739 22.483196 -2.730806 10.146693 -0.756613 0.012900 0.732000 2.011500 11.048772 10.481069 -18.100337 0.128189 -7.384079 19.971609 2.933098 -13.280164 -2.157679 -1.128500 6.747400 -18.969100 2.253010 1.991584 -12.529720 -0.787060 1.388352 -1.974756 13.274623 0.861229 9.717461 1.863000 0.765100 -0.514700 -89.099577 1.847709 -11.982908 9.085330 -9.260719 -0.822436 -0.349765 0.610277 67.961355 -7.125000 0.000000 0.000000 88.324365 30.364548 88.077841 -149.367471 36.653318 -109.161977 -0.768793 0.923800 -20.453030 7.125000 0.000000 0.000000 
-26.654495 18.253241 2.474682 -178.266980 7.192461 -163.868185 -6.653229 -15.195018 -16.461846 -0.549112 8.153910 22.501130 -2.627768 9.908907 -0.673752 0.013600 0.752300 2.067600 10.990812 10.527074 -18.077877 0.123888 -7.387110 19.973598 2.983346 -13.468422 -2.071979 -1.134500 6.764500 -19.019600 2.201376 1.946687 -12.535900 -0.842630 1.365670 -2.002706 13.459575 0.878396 9.808756 1.921100 0.782300 -0.479500 -89.033190 1.829696 -12.071171 9.080859 -9.263405 -0.831023 -0.359124 0.617515 67.828643 -7.125000 0.000000 0.000000 87.758818 29.652037 87.577886 -149.081010 36.911884 -108.979601 -0.736651 0.946607 -20.451322 7.125000 0.000000 0.000000 
-26.661617 18.252351 2.469229 -178.266539 7.231734 -163.924223 -6.682638 -15.477286 -16.257525 -0.547265 8.146839 22.490641 -2.781286 10.264054 -0.740467 0.011900 0.705800 1.939700 10.962852 10.551795 -18.008814 0.121757 -7.402721 20.004142 2.992617 -13.501546 -2.162368 -1.120000 6.722600 -18.896200 2.169607 1.981753 -12.503617 -0.882441 1.383431 -2.000148 13.774025 0.945224 9.689387 2.023400 0.804300 -0.518500 -88.995138 1.795662 -12.068582 9.067112 -9.250652 -0.837776 -0.365075 0.626335 67.640666 -7.125000 0.000000 0.000000 86.904379 28.957868 87.006578 -148.869386 37.083574 -108.803859 -0.765267 0.924774 -20.094544 7.125000 0.000000 0.000000 
-26.671188 18.251349 2.461995 -178.267850 7.335794 -164.022739 -6.746401 -15.772370 -15.987604 -0.547402 8.138848 22.480141 -2.967666 10.693131 -0.926897 0.008100 0.580800 1.595900 10.918456 10.557607 -17.917134 0.120799 -7.419500 20.038670 2.963015 -13.390535 -2.252257 -1.120900 6.725200 -18.903700 2.143814 2.062323 -12.471385 -0.903197 1.425478 -2.003952 14.039703 1.085959 9.423693 2.106900 0.849400 -0.623100 -89.031154 1.713228 -12.796317 9.022051 -9.219253 -0.835078 -0.357727 0.638999 68.227759 -7.125000 0.000000 0.000000 86.168686 28.231395 86.252488 -148.643141 37.272633 -108.676058 -0.751126 0.928246 -20.692879 7.125000 0.000000 0.000000 
-26.677865 18.249568 2.459436 -178.358475 7.279773 -164.079411 -6.855427 -15.857100 -15.918653 -0.551615 8.135059 22.481888 -2.947261 10.640930 -1.004410 0.009800 0.639300 1.756800 10.809472 10.511937 -17.887361 0.106704 -7.433943 20.044837 3.037685 -13.702099 -1.669256 -1.489800 7.711000 -21.839500 2.124829 2.031218 -12.471357 -0.862730 1.414182 -2.045209 14.155401 1.135177 9.455240 2.148200 0.876500 -0.625900 -89.102260 1.592129 -14.276941 8.960719 -9.193835 -0.822562 -0.338670 0.648573 69.673791 -7.125000 0.000000 0.000000 85.512480 27.339037 85.778720 -148.234673 37.633777 -108.431640 -0.728237 0.931217 -20.103252 7.125000 0.000000 0.000000 
-26.682205 18.248789 2.456431 -178.487414 7.107353 -164.137232 -6.985088 -15.870023 -15.923017 -0.550872 8.142991 22.515405 -2.838363 10.385077 -0.944044 0.016100 0.819900 2.253400 10.706648 10.331107 -17.877753 0.088118 -7.442035 20.016240 3.151273 -14.206061 -0.683426 -2.191400 9.253900 -26.593000 2.081625 1.963778 -12.464325 -0.791710 1.382377 -2.077097 14.049947 1.057151 9.540569 2.110700 0.846200 -0.596500 -89.149784 1.464708 -15.888833 8.910414 -9.188267 -0.807421 -0.312875 0.654886 71.374064 -7.125000 0.000000 0.000000 84.847800 26.402683 84.829111 -147.918562 37.915616 -108.258802 -0.697019 0.936697 -20.810925 7.125000 0.000000 0.000000 
-26.688103 18.249568 2.454539 -178.462410 7.019381 -164.084274 -6.969500 -15.819543 -16.021950 -0.540515 8.164495 22.574095 -2.782521 10.255376 -0.892315 0.015100 0.792800 2.178900 10.730936 10.224274 -17.934394 0.087066 -7.428335 19.965968 3.169775 -14.318695 -0.268581 -2.434500 9.717900 -28.068000 1.977496 2.078398 -12.460814 -0.822115 1.436596 -2.044137 13.808942 0.846031 9.539223 2.002500 0.744000 -0.585800 -89.104960 1.357315 -16.562309 8.862028 -9.148988 -0.800322 -0.295554 0.666790 72.352371 -7.125000 0.000000 0.000000 84.147988 25.518317 83.578631 -147.322954 38.435310 -107.865460 -0.673610 0.934639 -21.330388 7.125000 0.000000 0.000000 
